<?xml version="1.0" encoding="UTF-8"?>
<svg version="1.1" xmlns="http://www.w3.org/2000/svg" width="1267" height="1267">
<path d="M0 0 C10.23 0 20.46 0 31 0 C37.625 12 37.625 12 39.80957031 16.00268555 C43.12793865 22.04257799 46.52977796 27.91310858 50.359375 33.64453125 C59.94970959 48.19002334 59.94970959 48.19002334 60.0390625 53.18261719 C59.15479988 57.08617125 57.10060896 60.05177775 54.47949219 63.00463867 C52.81928517 65.10727917 52.81928517 65.10727917 51.46582031 68.25512695 C49.66314103 72.03314505 47.92038919 74.95004002 45 78 C39.57781356 79.60202659 34.5810997 79.24878065 29 78.8125 C27.54322773 78.74719642 26.08617324 78.68789685 24.62890625 78.63476562 C21.08001519 78.49238426 17.54182528 78.2687538 14 78 C13.41714233 76.9627478 13.41714233 76.9627478 12.82250977 75.90454102 C11.07087689 72.78956569 9.31672349 69.67601708 7.5625 66.5625 C6.95083984 65.47388672 6.33917969 64.38527344 5.70898438 63.26367188 C5.12568359 62.22919922 4.54238281 61.19472656 3.94140625 60.12890625 C3.40201416 59.17056885 2.86262207 58.21223145 2.30688477 57.22485352 C1.18471061 55.10085689 1.18471061 55.10085689 0 54 C-4.62 61.92 -9.24 69.84 -14 78 C-16.99123936 75.00876064 -18.59191456 73.33529563 -20.5078125 69.84765625 C-20.93707031 69.07099609 -21.36632812 68.29433594 -21.80859375 67.49414062 C-22.24300781 66.69169922 -22.67742188 65.88925781 -23.125 65.0625 C-23.56714844 64.26392578 -24.00929688 63.46535156 -24.46484375 62.64257812 C-25.67295691 60.43987029 -26.87370986 58.24571575 -28 56 C-28.43465576 55.20875732 -28.86931152 54.41751465 -29.31713867 53.60229492 C-30.2957638 49.87288298 -29.08009266 48.36350391 -27.16796875 45.078125 C-26.53439453 43.97082031 -25.90082031 42.86351562 -25.24804688 41.72265625 C-24.56144969 40.56495481 -23.87459768 39.40740447 -23.1875 38.25 C-22.51073691 37.07776411 -21.83558724 35.90459516 -21.16210938 34.73046875 C-16.26736954 26.26736954 -16.26736954 26.26736954 -15 25 C-12.9291528 24.8415735 -10.85321971 24.74875578 -8.77734375 24.68359375 C-7.51728516 24.64169922 -6.25722656 24.59980469 -4.95898438 24.55664062 C-3.61849264 24.51682404 -2.2779978 24.47711186 -0.9375 24.4375 C0.40691523 24.39431958 1.7513166 24.35070544 3.09570312 24.30664062 C6.3970234 24.20014642 9.69842236 24.0981354 13 24 C11.39620082 21.27061722 9.7918946 18.54153281 8.1875 15.8125 C7.73568359 15.04357422 7.28386719 14.27464844 6.81835938 13.48242188 C6.15610352 12.35610352 6.15610352 12.35610352 5.48046875 11.20703125 C5.0529834 10.47822754 4.62549805 9.74942383 4.18505859 8.99853516 C3.20391147 7.34388531 2.19356192 5.70659074 1.17578125 4.07421875 C0 2 0 2 0 0 Z M14 28 C12.47636511 30.08676806 12.47636511 30.08676806 10.9609375 32.77734375 C10.09082031 34.25944336 10.09082031 34.25944336 9.203125 35.77148438 C8.59984375 36.81626953 7.9965625 37.86105469 7.375 38.9375 C6.76398437 39.97841797 6.15296875 41.01933594 5.5234375 42.09179688 C2.55268576 46.3103508 2.55268576 46.3103508 1 51 C9.91 51 18.82 51 28 51 C26.14134426 45.42403277 23.9595041 41.11387833 21 36.125 C20.32324219 34.949375 20.32324219 34.949375 19.6328125 33.75 C19.19710937 33.01007812 18.76140625 32.27015625 18.3125 31.5078125 C17.91675781 30.83379395 17.52101563 30.15977539 17.11328125 29.46533203 C16.74589844 28.98177246 16.37851562 28.49821289 16 28 C15.34 28 14.68 28 14 28 Z " fill="#FA5656" transform="translate(761,582)"/>
<path d="M0 0 C3.63 0 7.26 0 11 0 C14.24078479 7.75160687 16.82907539 15.58356023 19.25 23.625 C20.4875 27.70875 21.725 31.7925 23 36 C26.96 24.12 30.92 12.24 35 0 C38.96 0 42.92 0 47 0 C50.63 11.55 54.26 23.1 58 35 C59.83665811 31.32668377 61.14852844 27.72165155 62.3828125 23.828125 C62.71150833 22.8044986 62.71150833 22.8044986 63.04684448 21.76019287 C63.74259943 19.5910873 64.43385829 17.42057935 65.125 15.25 C65.59735977 13.77464463 66.07001279 12.29938311 66.54296875 10.82421875 C67.69871182 7.21722405 68.85042609 3.60896536 70 0 C73.96 0 77.92 0 82 0 C81.3183586 5.55302202 79.55464387 10.54004427 77.69140625 15.78125 C77.36462387 16.71296021 77.03784149 17.64467041 76.70115662 18.60461426 C75.65952987 21.57138143 74.61119376 24.53572441 73.5625 27.5 C72.51891882 30.46480138 71.47669416 33.43007722 70.43455505 36.39538574 C69.7868528 38.23670035 69.13803091 40.07762162 68.4879303 41.91809082 C66.95277243 46.26648556 65.43966869 50.6187501 64 55 C60.37 55 56.74 55 53 55 C51.44980944 50.37417958 49.90160547 45.74770084 48.35522461 41.12060547 C47.82907549 39.5471814 47.30238756 37.9739374 46.77514648 36.40087891 C46.01664177 34.13751798 45.26008814 31.87351287 44.50390625 29.609375 C44.26845596 28.90818542 44.03300568 28.20699585 43.79042053 27.48455811 C42.74297522 24.34258153 41.77625305 21.21899602 41 18 C40.64172119 19.08531006 40.28344238 20.17062012 39.91430664 21.28881836 C38.58855136 25.30219173 37.25887056 29.31425515 35.92797852 33.32592773 C35.35170451 35.06482844 34.77650631 36.80408604 34.20239258 38.54370117 C33.37861894 41.03918801 32.55102809 43.5333801 31.72265625 46.02734375 C31.46533218 46.80963852 31.20800812 47.59193329 30.94288635 48.39793396 C29.11387171 53.88612829 29.11387171 53.88612829 28 55 C26.14712498 55.07226502 24.29166122 55.0838122 22.4375 55.0625 C21.42558594 55.05347656 20.41367187 55.04445313 19.37109375 55.03515625 C18.19740234 55.01775391 18.19740234 55.01775391 17 55 C15.05914349 49.20231815 13.12033605 43.40395645 11.18334961 37.60498047 C10.52537141 35.63604644 9.86685271 33.66729293 9.20776367 31.69873047 C8.25554385 28.85432517 7.30532847 26.00925667 6.35546875 23.1640625 C6.0647197 22.29697662 5.77397064 21.42989075 5.47441101 20.53652954 C4.03607203 16.2219005 2.6340172 11.89733844 1.2902832 7.55224609 C1.04212357 6.75064056 0.79396393 5.94903503 0.5382843 5.12313843 C0 3 0 3 0 0 Z " fill="#FA5656" transform="translate(250,604)"/>
<path d="M0 0 C3.63 0 7.26 0 11 0 C11.33 9.24 11.66 18.48 12 28 C14.31 26.02 16.62 24.04 19 22 C27.26899036 19.15753456 34.17345095 19.42206054 42.34375 22.609375 C48.48557181 25.82479936 52.44968181 31.32460528 54.50390625 37.8828125 C56.73361861 47.39859279 56.80767385 57.77419415 51.75 66.4375 C47.47133388 72.45008622 42.18839781 76.35584518 35 78 C28.59644614 78.74436215 22.67332313 78.22033419 17 75 C15.09625746 73.44365573 13.61800759 71.87082127 12 70 C11.34 72.31 10.68 74.62 10 77 C6.7 77 3.4 77 0 77 C0 51.59 0 26.18 0 0 Z M16 35 C12.03753783 40.35467861 10.76571004 45.33801586 11 52 C11.9115656 57.96835585 14.13132654 62.23741312 18.98046875 65.90234375 C23.28179494 68.24020189 27.4575149 68.51658266 32.2109375 67.55078125 C36.80558434 66.07332046 39.40646947 64.18954931 42 60 C44.86372966 53.8886349 45.16104188 47.08343706 43.3125 40.58203125 C41.21534757 35.92460522 38.79000326 33.05285854 34 31 C27.14336479 30.09582832 21.1953376 29.93454584 16 35 Z " fill="#FA5656" transform="translate(587,582)"/>
<path d="M0 0 C7.2256606 4.7107222 10.27074804 10.37993112 12.75 18.4375 C13.71862403 28.36589632 13.10320032 38.00200542 7.25 46.4375 C3.44419666 51.05748017 -1.08231704 53.83174894 -7 55 C-17.05992412 55.81229201 -23.12904308 54.29676554 -31 48 C-31.33 56.25 -31.66 64.5 -32 73 C-35.63 73 -39.26 73 -43 73 C-43 48.58 -43 24.16 -43 -1 C-39.37 -1 -35.74 -1 -32 -1 C-31.67 0.98 -31.34 2.96 -31 5 C-30.195625 4.236875 -29.39125 3.47375 -28.5625 2.6875 C-20.21497035 -4.24252462 -9.56285663 -4.61711806 0 0 Z M-28.31640625 13.58984375 C-31.91983386 19.52859378 -31.98127316 26.27366603 -31 33 C-29.10357023 37.81228424 -26.38391751 41.23290344 -22 44 C-17.17566005 45.27679349 -12.98454685 45.27438191 -8.1875 43.9375 C-3.50850042 41.09340222 -0.84327969 38.62621389 0.8203125 33.4453125 C2.4923882 25.80456153 1.93666353 20.66582739 -1.75 13.6875 C-4.8736841 9.95643288 -7.49527669 8.33534312 -12.36328125 7.68359375 C-18.96287841 7.37314229 -23.98502879 8.35877364 -28.31640625 13.58984375 Z " fill="#FA5656" transform="translate(173,605)"/>
<path d="M0 0 C3.63 0 7.26 0 11 0 C11 25.41 11 50.82 11 77 C7.7 77 4.4 77 1 77 C0.505 73.535 0.505 73.535 0 70 C-0.43570313 70.40992188 -0.87140625 70.81984375 -1.3203125 71.2421875 C-7.55728984 76.88516699 -12.70781838 78.51054249 -21.125 78.3046875 C-27.90588472 77.58606113 -33.21610905 75.27144521 -37.9375 70.3125 C-44.61812854 61.70961514 -44.810073 52.62352873 -44 42 C-42.84788247 34.34180703 -38.62301048 29.15264458 -33 24 C-27.22446228 20.3761332 -21.75528036 19.54964798 -15 20 C-9.09177233 21.38061678 -5.87685024 23.09851981 -1 27 C-0.67 18.09 -0.34 9.18 0 0 Z M-28 35 C-32.53798752 40.88711895 -33.71251334 45.60599361 -33 53 C-31.86631996 58.55399213 -29.52070016 62.3946176 -25.0234375 65.8671875 C-21.43817096 67.87438305 -18.06607763 68.31000237 -14 68 C-8.76007385 66.42802215 -5.49603817 64.19524581 -2 60 C0.76474886 54.20857871 1.22274532 47.79429218 -0.7578125 41.6484375 C-2.57579235 37.82638538 -4.67107516 34.68461681 -8 32 C-15.0599877 29.64667077 -22.38951872 29.80004174 -28 35 Z " fill="#FA5656" transform="translate(532,582)"/>
<path d="M0 0 C2.875 2.6875 2.875 2.6875 5 5 C5.33 2.69 5.66 0.38 6 -2 C9.3 -2 12.6 -2 16 -2 C16 16.15 16 34.3 16 53 C12.7 53 9.4 53 6 53 C5.34 50.69 4.68 48.38 4 46 C3.34644531 46.61488281 3.34644531 46.61488281 2.6796875 47.2421875 C-3.57898183 52.90479308 -8.74596964 54.51095325 -17.19140625 54.3046875 C-23.74226736 53.59402385 -28.3833127 51.02359236 -32.875 46.25 C-38.64322143 38.98631376 -40.17091979 31.20687945 -40 22 C-38.78697191 12.48420686 -35.51865956 5.73280572 -28.125 -0.375 C-19.30989115 -4.9588566 -8.55120229 -5.70080153 0 0 Z M-25.3125 13.5625 C-28.97951809 18.8593039 -28.56674305 24.78944069 -28 31 C-26.45721275 36.20690695 -23.84109664 40.36896922 -19 43 C-14.0624708 44.20919083 -10.09737855 44.30582681 -5.1875 42.9375 C-0.39331031 40.0233847 2.19240016 36.90887235 4.375 31.75 C5.39533254 25.62800476 5.18952502 19.73459689 2.3125 14.125 C-0.3173347 10.57116933 -1.9614797 8.83569105 -6 7 C-14.40925975 5.7843544 -19.5303602 7.15526401 -25.3125 13.5625 Z " fill="#FA5656" transform="translate(893,606)"/>
<path d="M0 0 C2.875 2.6875 2.875 2.6875 5 5 C5.33 2.69 5.66 0.38 6 -2 C9.3 -2 12.6 -2 16 -2 C16 16.15 16 34.3 16 53 C12.7 53 9.4 53 6 53 C5.34 50.69 4.68 48.38 4 46 C3.34644531 46.61488281 3.34644531 46.61488281 2.6796875 47.2421875 C-3.57898183 52.90479308 -8.74596964 54.51095325 -17.19140625 54.3046875 C-23.77768893 53.59018117 -28.39281697 51.01663025 -32.875 46.1875 C-38.76753184 38.73999448 -40.16080223 31.36941014 -40 22 C-38.81353574 12.48524781 -35.51281439 5.7279771 -28.125 -0.375 C-19.30989115 -4.9588566 -8.55120229 -5.70080153 0 0 Z M-24.75 13 C-28.91007287 18.54676383 -28.61163691 24.29747888 -28 31 C-26.45721275 36.20690695 -23.84109664 40.36896922 -19 43 C-14.0624708 44.20919083 -10.09737855 44.30582681 -5.1875 42.9375 C-0.39331031 40.0233847 2.19240016 36.90887235 4.375 31.75 C5.39533254 25.62800476 5.18952502 19.73459689 2.3125 14.125 C-0.3173347 10.57116933 -1.9614797 8.83569105 -6 7 C-14.06346598 5.95649264 -19.30391109 6.81545836 -24.75 13 Z " fill="#FA5656" transform="translate(1011,606)"/>
<path d="M0 0 C3.96 0 7.92 0 12 0 C12.33 8.91 12.66 17.82 13 27 C15.97 24.525 15.97 24.525 19 22 C26.19132847 19.25422004 32.66660362 19.29128834 39.8515625 21.890625 C44.39238079 24.23533844 47.11086025 27.88351633 49.06225586 32.52856445 C50.25790791 36.95474945 50.24968913 40.99357565 50.1953125 45.5546875 C50.1924826 46.45623566 50.18965271 47.35778381 50.18673706 48.28665161 C50.17559439 51.14957276 50.1505008 54.01217434 50.125 56.875 C50.11496255 58.82291213 50.10583804 60.77082919 50.09765625 62.71875 C50.07567443 67.4792887 50.0411855 72.23959027 50 77 C46.37 77 42.74 77 39 77 C38.98541748 75.94611084 38.97083496 74.89222168 38.95581055 73.80639648 C38.89755055 69.87181787 38.82032096 65.93779507 38.73754883 62.00366211 C38.70442917 60.30551214 38.67635739 58.60725552 38.65356445 56.90893555 C38.61977831 54.45836213 38.56745361 52.00875469 38.51171875 49.55859375 C38.50532883 48.80726669 38.4989389 48.05593964 38.49235535 47.28184509 C38.35218698 42.1817634 37.42147417 38.51977563 35 34 C30.53081267 31.02054178 26.23927868 31.51601971 21 32 C17.42094353 33.34214618 16.39077658 34.36170164 14.40698242 37.60205078 C12.77030884 41.55471829 12.52489195 45.03325497 12.48828125 49.2421875 C12.47033005 50.01055939 12.45237885 50.77893127 12.43388367 51.57058716 C12.38005042 54.00533695 12.34597308 56.4398938 12.3125 58.875 C12.27930295 60.53388086 12.24481109 62.19273635 12.20898438 63.8515625 C12.12434009 67.90090182 12.05740143 71.95018661 12 76 C8.04 76 4.08 76 0 76 C0 50.92 0 25.84 0 0 Z " fill="#FA5656" transform="translate(1087,582)"/>
<path d="M0 0 C3.96 0 7.92 0 12 0 C12.33 14.52 12.66 29.04 13 44 C22.28151817 35.01386983 22.28151817 35.01386983 30.5 25.125 C32.81381519 22.3003425 33.8082962 22.02590018 37.52734375 21.5234375 C41.05840761 21.50227228 44.4879276 21.64927987 48 22 C46.54254576 25.36335594 44.68882146 27.54534005 42.0859375 30.109375 C41.32539062 30.86347656 40.56484375 31.61757813 39.78125 32.39453125 C38.9871875 33.17183594 38.193125 33.94914063 37.375 34.75 C36.57320312 35.54277344 35.77140625 36.33554687 34.9453125 37.15234375 C32.96797154 39.10614493 30.98611091 41.05512103 29 43 C32.80643968 51.19169364 37.82827112 58.47311155 42.86328125 65.95117188 C43.52199219 66.94310547 44.18070313 67.93503906 44.859375 68.95703125 C45.76381348 70.30244995 45.76381348 70.30244995 46.68652344 71.67504883 C48 74 48 74 48 77 C43.85174927 77.61304198 40.13052365 77.81571347 36 77 C32.73847911 74.21757258 31.01890569 70.73994005 29 67 C27.90810911 65.20456858 26.79124316 63.42623408 25.67285156 61.6472168 C24.08661656 59.11544901 22.54357563 56.55792533 21 54 C17.59139427 55.46083103 15.24085607 57.01707395 13 60 C12.57668991 62.84222491 12.35040379 65.34471604 12.3125 68.1875 C12.08952703 75.91047297 12.08952703 75.91047297 11 77 C9.33570949 77.09823937 7.66718069 77.12973631 6 77.125 C4.63875 77.12886719 4.63875 77.12886719 3.25 77.1328125 C1 77 1 77 0 76 C-0.09494733 73.62699131 -0.12559319 71.28321297 -0.11352539 68.90991211 C-0.11367142 68.16849472 -0.11381744 67.42707733 -0.1139679 66.66319275 C-0.11326865 64.20121379 -0.10547574 61.73930957 -0.09765625 59.27734375 C-0.09579211 57.57483461 -0.09436819 55.87232493 -0.09336853 54.16981506 C-0.08954302 49.68006927 -0.07971247 45.19035562 -0.06866455 40.70062256 C-0.05845113 36.12268509 -0.05387106 31.54474244 -0.04882812 26.96679688 C-0.03809022 17.97785043 -0.02101341 8.98892788 0 0 Z " fill="#FA5656" transform="translate(922,582)"/>
<path d="M0 0 C5.18094273 4.46566332 7.82810238 10.13127279 9.09375 16.8046875 C9.09375 20.1046875 9.09375 23.4046875 9.09375 26.8046875 C-4.76625 26.8046875 -18.62625 26.8046875 -32.90625 26.8046875 C-30.14117515 35.22117551 -30.14117515 35.22117551 -24.90625 40.8046875 C-19.67641104 42.54796715 -13.09829792 42.97814512 -7.85546875 41.05078125 C-4.63224238 39.01127077 -3.64376914 37.27972579 -1.90625 33.8046875 C1.72375 33.8046875 5.35375 33.8046875 9.09375 33.8046875 C7.22089309 41.4131687 4.64327212 45.43439154 -1.90625 49.8046875 C-8.60415858 53.71760291 -16.78133098 53.98736112 -24.2421875 52.265625 C-32.62121245 49.34420251 -37.75760757 44.58661305 -41.90625 36.8046875 C-45.57302044 27.6552222 -44.40775715 17.81807283 -40.90625 8.8046875 C-37.0127912 1.23621477 -30.90123606 -2.22135367 -22.984375 -4.828125 C-14.7528472 -6.28256788 -6.86225799 -4.65653221 0 0 Z M-27.90625 8.8046875 C-30.87413373 12.55359327 -31.90625 13.96238367 -31.90625 18.8046875 C-22.00625 18.8046875 -12.10625 18.8046875 -1.90625 18.8046875 C-4.21674039 10.32525643 -4.21674039 10.32525643 -9.90625 5.8046875 C-16.00009568 2.75776466 -23.06159632 4.42142941 -27.90625 8.8046875 Z " fill="#FA5656" transform="translate(472.90625,607.1953125)"/>
<path d="M0 0 C5.9720634 5.13875223 8.86235634 11.52905534 9.6875 19.3125 C9.6875 21.9525 9.6875 24.5925 9.6875 27.3125 C-4.1725 27.3125 -18.0325 27.3125 -32.3125 27.3125 C-29.16126193 36.7527188 -29.16126193 36.7527188 -22.3125 42.3125 C-13.6447272 43.21082215 -13.6447272 43.21082215 -5.625 40.5625 C-3.01877146 38.27369715 -3.01877146 38.27369715 -1.3125 34.3125 C2.3175 34.3125 5.9475 34.3125 9.6875 34.3125 C7.82570495 41.87604241 5.28735867 46.04744247 -1.3125 50.3125 C-8.97659605 54.24963161 -17.76447505 54.53213342 -26 52.25 C-32.78202857 49.63685279 -37.72118861 45.23826803 -40.75 38.625 C-44.25908079 29.7657512 -44.44783592 20.71764643 -41.34375 11.6640625 C-37.99842986 4.03571884 -33.02328564 -0.56295556 -25.3125 -3.6875 C-16.16085574 -5.86448204 -8.27486883 -4.21549921 0 0 Z M-29.625 11.75 C-31.67961373 14.52081686 -31.67961373 14.52081686 -32.3125 19.3125 C-22.4125 19.3125 -12.5125 19.3125 -2.3125 19.3125 C-3.15312059 12.18670598 -3.15312059 12.18670598 -7.3125 7.3125 C-15.52365809 2.38580514 -23.48027625 5.27312902 -29.625 11.75 Z " fill="#FA5656" transform="translate(376.3125,606.6875)"/>
<path d="M0 0 C6.39230087 6.21953598 9.17545985 13.292784 9.37890625 22.13671875 C8.98852833 31.37566277 6.32501038 38.73544419 -0.4375 45.1875 C-6.90739273 50.31504115 -13.67107815 51.85385523 -21.84765625 51.6015625 C-29.49455446 50.65490385 -36.41280575 47.90145813 -41.6875 42.25 C-47.44965616 33.34770425 -48.42638214 25.71046004 -47.6875 15.25 C-46.116713 8.06790762 -42.60775009 2.6147334 -36.6875 -1.75 C-24.08619443 -8.95074604 -11.87074535 -7.72978767 0 0 Z M-31.6875 8.25 C-35.95334189 13.63843186 -37.06448695 18.14354842 -36.96484375 24.875 C-36.3233175 30.36863327 -33.67926917 34.14016307 -30.0625 38.1875 C-25.59927022 40.91502931 -21.88148396 41.53031025 -16.6875 41.25 C-10.87029841 39.53344871 -6.84256962 36.64837902 -3.5703125 31.48828125 C-1.31933096 25.78114665 -1.97091502 18.47937549 -3.8125 12.75 C-6.52300175 9.13599766 -9.60230327 6.29259837 -13.6875 4.25 C-20.82647709 3.52781492 -25.94985486 3.80039765 -31.6875 8.25 Z " fill="#FA5656" transform="translate(239.6875,608.75)"/>
<path d="M0 0 C3.63 0 7.26 0 11 0 C14.7219911 7.9921139 17.70486413 16.21348083 20.6875 24.5 C21.43313844 26.5698019 22.17975419 28.63921946 22.92988586 30.70739746 C23.60268659 32.56241784 24.27154178 34.41886782 24.94018555 36.27539062 C25.74091173 38.87513419 25.74091173 38.87513419 27 40 C27.41886475 38.85934082 27.83772949 37.71868164 28.26928711 36.54345703 C29.82052555 32.32004454 31.37328672 28.09719326 32.92651367 23.87451172 C33.59913153 22.04523804 34.27133379 20.21581148 34.94311523 18.38623047 C35.90760374 15.75968981 36.87357513 13.13369871 37.83984375 10.5078125 C38.14091537 9.68693146 38.441987 8.86605042 38.75218201 8.02029419 C40.88612829 2.22774341 40.88612829 2.22774341 42 0 C45.96 0 49.92 0 54 0 C48.40526634 15.37206869 42.64841169 30.68065679 36.7487793 45.93826294 C36.04504979 47.76126961 35.34417044 49.58537925 34.64624023 51.41061401 C33.65124913 54.01006092 32.64534742 56.60503789 31.63671875 59.19921875 C31.34423752 59.96917175 31.05175629 60.73912476 30.75041199 61.53240967 C28.20856872 68.01041024 25.49782169 74.8213211 19.3125 78.5 C13.31566474 81.08307705 7.19984675 80.54996169 1 79 C1 75.7 1 72.4 1 69 C1.89203125 68.97421875 2.7840625 68.9484375 3.703125 68.921875 C4.87359375 68.86515625 6.0440625 68.8084375 7.25 68.75 C8.41015625 68.70359375 9.5703125 68.6571875 10.765625 68.609375 C14.51158635 67.90361417 15.66173672 66.9365513 18 64 C20.07764912 60.69464912 20.07954825 58.57394261 19.24975586 54.89477539 C18.10204587 50.05159163 16.45335479 45.49491088 14.62890625 40.87109375 C14.30591049 40.03715591 13.98291473 39.20321808 13.65013123 38.3440094 C12.62695234 35.70611356 11.59498169 33.07176668 10.5625 30.4375 C9.87374575 28.66755232 9.18558967 26.89737175 8.49804688 25.12695312 C7.52600706 22.62436043 6.55317719 20.12211492 5.57557678 17.62168884 C4.9939335 16.13374212 4.41422518 14.64503717 3.83670044 13.15548706 C3.26814942 11.69079994 2.69411409 10.22823233 2.11520386 8.76760864 C0.92402671 5.70846004 0 3.31335473 0 0 Z " fill="#FA5656" transform="translate(644,604)"/>
<path d="M0 0 C3.75398002 3.97480237 5.125 7.83266619 5.125 13.25 C1.495 13.25 -2.135 13.25 -5.875 13.25 C-6.2875 12.30125 -6.7 11.3525 -7.125 10.375 C-8.96863444 7.08279564 -9.47835233 6.4796108 -12.875 5.25 C-15.1778892 5.14698061 -15.1778892 5.14698061 -17.5 5.5 C-18.27601562 5.58765625 -19.05203125 5.6753125 -19.8515625 5.765625 C-22.08825027 6.11454357 -22.08825027 6.11454357 -23.875 8.25 C-24.38288124 12.33993112 -24.38288124 12.33993112 -22.60668945 15.86352539 C-20.66481145 17.41828715 -19.26324242 17.91735262 -16.85546875 18.49609375 C-16.08009766 18.69396484 -15.30472656 18.89183594 -14.50585938 19.09570312 C-12.88891588 19.48733692 -11.27173137 19.87797711 -9.65429688 20.26757812 C-3.57967281 21.82014954 1.37707781 23.62811672 5 29.0625 C6.83250825 34.2546067 6.75969558 38.32763089 4.625 43.375 C1.9260238 48.33918837 -2.45363185 51.14017603 -7.765625 52.86328125 C-15.4817522 54.27790457 -22.88729848 53.80514639 -29.875 50.25 C-32.97660522 47.62037818 -35.57376821 45.15369537 -36.875 41.25 C-37 38 -37 38 -36.875 35.25 C-33.575 35.25 -30.275 35.25 -26.875 35.25 C-26.4625 36.19875 -26.05 37.1475 -25.625 38.125 C-24.16050642 41.18946871 -24.16050642 41.18946871 -22.1875 42.625 C-16.75594829 44.09298695 -11.87914869 43.75207434 -6.875 41.25 C-6.10977199 37.89541845 -6.10977199 37.89541845 -5.875 34.25 C-7.85222935 31.59183407 -9.72937369 30.7646949 -12.89453125 30.00390625 C-13.66990234 29.80603516 -14.44527344 29.60816406 -15.24414062 29.40429688 C-16.86108412 29.01266308 -18.47826863 28.62202289 -20.09570312 28.23242188 C-26.14633209 26.68598321 -31.08885873 24.86967386 -34.75 19.5 C-36.55067279 14.29805639 -36.58371789 10.25803403 -34.75 5.0625 C-31.60466418 0.34449628 -28.37438936 -2.55576516 -22.9375 -4.0625 C-14.48897329 -5.72660375 -7.33435113 -4.46438764 0 0 Z " fill="#FA5656" transform="translate(1071.875,606.75)"/>
<path d="M0 0 C1.09570312 0.00902344 2.19140625 0.01804687 3.3203125 0.02734375 C4.16335938 0.03894531 5.00640625 0.05054688 5.875 0.0625 C5.875 3.6925 5.875 7.3225 5.875 11.0625 C4.99457031 11.14886719 4.11414063 11.23523438 3.20703125 11.32421875 C-3.9417427 12.12187094 -3.9417427 12.12187094 -10.3125 15.1875 C-15.27424954 23.05786134 -14.5472989 32.57186142 -14.75 41.5625 C-14.78825297 42.97137638 -14.82730875 44.3802312 -14.8671875 45.7890625 C-14.96100533 49.21341327 -15.04670216 52.63776508 -15.125 56.0625 C-18.755 56.0625 -22.385 56.0625 -26.125 56.0625 C-26.125 37.9125 -26.125 19.7625 -26.125 1.0625 C-22.495 1.0625 -18.865 1.0625 -15.125 1.0625 C-14.795 2.7125 -14.465 4.3625 -14.125 6.0625 C-13.17625 5.258125 -12.2275 4.45375 -11.25 3.625 C-7.3595057 0.32653744 -5.15730192 -0.05486491 0 0 Z " fill="#FA5757" transform="translate(421.125,602.9375)"/>
</svg>
